<svg xmlns="http://www.w3.org/2000/svg" width="200" height="200" viewBox="0 0 200 200">
  <defs>
    <style>
      .cls-1 {
        fill: #ea0505;
        fill-rule: evenodd;
      }
    </style>
  </defs>
  <path id="d" class="cls-1" d="M138.725,134.049l2.7-19.95a11.779,11.779,0,0,1-5.025-.75,2.775,2.775,0,0,1-1.425-2.7V37h-30.15V61.9q-4.8-2.4-12.6-2.4-13.651,0-20.925,9.525T64.025,96.7q0,18.15,6.6,28.05t22.2,9.9a24.474,24.474,0,0,0,16.35-5.85h0.6q4.349,5.85,16.05,5.85,5.1,0,12.9-.6h0Zm-38.7-51.75a12.675,12.675,0,0,1,4.8,1.05v29.1a15.926,15.926,0,0,1-4.875.6q-3.076,0-3.825-3.375a63.464,63.464,0,0,1-.75-11.925q0-8.55.825-12t3.825-3.45h0Z"/>
</svg>
